ply
format ascii 1.0
comment Created by Blender 2.78 (sub 0) - www.blender.org, source file: 'Gompei dab static.blend'
element vertex 377
property float x
property float y
property float z
element face 745
property list uchar uint vertex_indices
end_header
0.618396 0.145177 0.358467
0.566649 -0.472723 0.372738
0.708471 -0.432027 0.200928
0.067397 -0.192077 -0.529447
0.323440 0.267137 -0.517125
0.581986 -0.336326 -0.427057
0.702407 -0.327298 -0.258139
0.643600 -0.740839 -0.547405
0.053052 -0.393079 -0.600336
-0.035914 0.036888 0.478101
0.136495 0.485042 0.633688
-0.276101 0.606735 0.624820
0.470548 0.087104 0.505544
0.666259 0.147182 -0.308151
0.702569 0.138590 0.030835
-0.000701 -0.486001 0.482080
-0.002851 -0.697383 -0.599801
0.631595 -0.918540 0.427198
1.001731 -1.416408 0.216010
0.934745 -1.040875 -0.063466
-0.000102 -0.814670 0.488949
0.628025 -1.445841 0.591040
0.549594 -2.344658 -0.545548
0.389460 -2.978228 -0.231239
0.292616 -2.666195 -0.341263
0.322841 -2.363910 -0.133504
0.483298 -2.903850 -0.034942
0.485349 -1.876974 0.067944
0.640709 -2.082851 -0.392431
0.291132 -2.091970 -0.330433
0.381332 -2.115427 0.326771
0.452520 -2.323631 0.303194
0.926236 -1.901517 0.117082
0.713680 -2.350247 -0.474634
0.827004 -2.364148 0.186920
0.665390 -2.438917 -0.146792
0.758685 -2.358843 -0.291980
1.001237 -2.114351 0.196248
0.363429 -1.945263 0.139871
0.233139 -2.285655 -0.409217
0.421202 -2.439965 -0.056876
0.736136 -2.916095 -0.118359
0.692712 -3.202234 0.249967
0.430010 -3.089985 0.141526
0.745924 -3.348539 -0.333921
0.862063 -3.112523 -0.029422
0.329290 -1.650560 -0.097834
0.756403 -1.879723 0.018445
0.974387 -1.461098 0.036086
0.738285 -1.567607 -0.165087
0.489779 -1.859369 0.610925
0.838446 -1.864233 0.590679
0.880728 -1.410392 0.484659
1.003505 -1.826591 0.369947
0.131234 -1.623923 0.091772
0.362073 -1.829975 0.208721
0.342810 -1.831383 0.262539
0.375104 -1.841876 0.161857
0.171540 -1.567790 0.322229
0.836154 -2.218712 0.415171
0.485586 -2.163484 0.486733
0.000960 -1.004673 -0.405372
0.327840 -1.490711 0.530694
0.836731 0.466706 0.260149
0.637127 0.528123 0.559010
0.576735 0.819258 0.758191
0.042453 0.804436 0.724840
0.311905 1.149849 0.769622
1.459616 0.479203 1.505940
1.385844 0.648072 1.609286
1.300828 0.457325 1.724974
0.818039 0.582208 -0.337515
0.926581 1.324382 -0.078874
1.187985 1.067271 0.047698
0.993742 0.596983 -0.036594
1.277215 1.164909 0.364532
0.884692 1.252994 0.734837
1.063259 1.407048 0.403243
0.768289 1.401265 0.732380
0.501443 1.506127 0.689346
1.134524 1.642386 0.673860
1.036799 1.303967 0.622607
0.860289 1.642009 0.263589
1.072928 1.802003 0.510326
0.630888 -3.358099 0.500184
0.308300 -3.359344 -0.003505
0.411727 -3.348202 -0.250824
0.700417 -3.370350 0.252597
0.922692 -3.377783 0.418693
0.915515 -3.362097 0.016622
0.871656 -3.254966 0.346028
0.610790 -2.962165 -0.325705
1.577450 0.846560 0.741112
1.524587 0.585675 0.620370
0.988316 0.519783 0.819153
1.015689 0.288899 1.452242
1.004775 0.815231 0.939058
1.157645 0.690109 1.523493
1.291072 1.010853 0.947751
1.356334 0.398991 0.575606
1.136460 0.376065 0.667349
1.170496 0.227932 1.595406
1.061859 0.221555 1.540938
0.572209 0.661039 1.832464
0.761722 0.813370 1.848413
0.834641 0.761400 2.003123
0.604166 0.607719 2.075550
0.486967 0.557235 1.900654
0.333023 0.773064 1.870398
0.661473 0.864123 2.023410
0.133698 0.757827 2.040334
0.100335 0.746897 1.922946
0.668762 0.868150 1.802553
0.461720 1.127866 1.860371
0.623118 0.767928 1.785332
0.553691 0.857712 1.686144
0.378118 0.839506 2.039153
0.489536 1.025339 1.857943
0.278465 1.037981 1.883078
0.399415 0.937217 1.827420
0.193226 1.103354 1.548116
0.210279 1.045211 1.862632
0.156278 0.904269 1.876174
0.489437 0.945342 1.755920
0.140421 1.148775 1.574848
0.345023 1.143791 1.872138
0.113518 1.067582 1.609528
0.136596 0.896048 1.922864
0.128554 0.855914 1.824802
0.219393 0.974870 1.745110
0.035066 0.914161 1.654351
0.124270 0.956573 1.609628
0.373107 0.824170 1.800189
0.060361 1.006938 1.628847
-0.085237 0.828871 1.775268
-0.020875 0.835394 1.715557
-0.039725 0.893555 1.756985
0.155305 1.041898 1.569309
0.398811 0.787136 1.673678
0.226732 0.934602 1.647352
0.296189 0.970184 1.597959
0.330944 0.971011 1.715702
0.260395 0.981554 1.670121
0.816843 1.012837 0.845119
0.709149 0.552818 0.934143
0.650597 0.748858 0.858058
1.053771 0.892264 1.041098
1.048646 1.223543 1.585927
1.302114 1.215394 1.293457
1.260839 1.297312 1.781609
0.570588 1.231940 0.788103
1.000746 1.319997 0.788816
0.492751 0.553478 0.846705
0.755906 0.442422 1.088656
0.590900 0.324207 1.102266
1.535361 1.985770 1.544896
1.496952 1.541361 1.525429
1.521200 1.737386 1.465425
1.407180 2.058902 1.364336
0.772810 2.100621 0.625728
1.338639 2.066918 0.903861
1.157070 1.948414 0.603246
1.306952 2.214725 1.455472
1.236054 1.970479 1.832233
1.328240 2.080373 1.617015
1.105505 2.225945 1.502548
0.783937 0.311738 1.437267
0.661603 0.265085 1.409645
0.642729 0.267281 1.129117
0.453409 0.313111 1.204124
0.464204 0.527708 0.912161
0.953569 1.034051 1.534140
0.562889 0.484027 1.637371
1.422132 1.504163 1.274205
1.396724 1.703919 0.901017
1.490018 1.783071 1.298698
0.839571 1.423369 1.883011
1.412246 1.928469 1.848686
1.869334 1.535579 1.276453
1.566696 1.898759 1.781159
1.732517 2.120853 1.755811
1.744984 2.084891 1.903781
1.615786 2.207648 1.945075
2.008836 2.183496 1.838074
2.041219 2.018186 1.824805
1.605145 2.238701 1.790607
2.418180 1.916986 1.932734
2.009444 2.137295 1.968513
2.299756 1.928062 1.795738
0.780736 1.960531 0.512201
1.756436 1.614568 1.313196
0.491015 0.362001 0.862382
0.256639 0.396717 1.174584
-0.820504 -0.635945 0.172071
-0.532244 -0.281548 0.345808
-0.676341 -0.197694 -0.073340
-0.276436 0.492031 -0.431683
0.193004 0.704179 -0.591143
-0.379342 -0.374122 -0.542945
-0.547455 -0.142790 -0.431886
-0.461697 0.180651 0.248448
-0.512464 0.306492 -0.220697
0.004204 -0.697002 -0.598283
-0.651657 -0.714239 -0.526208
-0.838852 -0.784579 -0.346127
-0.671356 -0.897364 0.433353
-0.439694 -2.985991 -0.291469
-0.593081 -2.353273 -0.542854
-0.314999 -2.642925 -0.378789
-0.479129 -1.882064 0.059012
-0.658611 -2.095245 -0.393353
-0.755564 -1.889131 0.040691
-0.923654 -1.991367 0.096930
-0.392891 -2.443773 -0.075828
-0.342499 -2.119630 0.308225
-0.403541 -2.315576 0.318174
-0.778882 -2.368208 -0.273941
-0.953381 -2.161575 0.213319
-0.266784 -2.326169 -0.438057
-0.345911 -1.950686 0.116999
-0.799006 -2.371611 0.219672
-0.291743 -2.116447 -0.352550
-0.396218 -3.002026 -0.172814
-0.645354 -2.983397 -0.308650
-0.745506 -2.365746 -0.464000
-0.714989 -2.914184 -0.093999
-0.474111 -2.908847 -0.042093
-0.637853 -3.205787 0.259411
-0.414147 -3.131069 0.193940
-0.753187 -3.361003 -0.312730
-0.227948 -1.662727 -0.097603
-0.758864 -1.578684 -0.151277
-1.004314 -1.446006 0.170173
-0.795077 -1.429915 0.546332
-0.419713 -1.852978 0.596960
-0.312987 -1.480898 0.534802
-0.980675 -1.815643 0.363104
-0.144836 -1.560541 0.299062
-0.315402 -1.836394 0.232534
-0.159374 -1.634992 0.033410
-0.824911 -2.230012 0.425702
-0.455875 -2.176632 0.480102
-0.778139 -1.882375 0.609650
-0.156873 1.295145 0.725860
-0.449659 0.844309 0.559186
0.018465 1.478809 -0.393826
-0.211857 0.848132 -0.425513
-0.462630 1.010766 0.006793
-0.432086 1.164197 -0.216801
0.138112 1.335194 0.797080
-0.406521 1.292831 0.416922
0.435252 1.691724 -0.260035
0.501839 1.073009 -0.485221
-0.030306 1.537364 0.695792
0.595419 1.719141 -0.001227
0.229321 1.896737 -0.184933
-0.323146 1.505059 0.580790
0.212961 1.779223 0.503541
0.481485 1.726497 0.531389
0.354251 1.843041 0.271197
0.623423 1.889644 0.716675
0.627240 1.784672 0.288786
-0.505744 0.770176 0.341929
-0.104648 1.716164 0.490466
0.340976 1.962819 0.010639
-0.328287 2.174848 0.268984
-0.498581 1.938040 0.429470
-0.621832 1.676629 -0.241605
-0.701573 1.600807 0.023860
-0.518955 1.850045 -0.278403
-0.652533 1.700700 0.271604
-0.272716 2.218338 -0.068628
-0.565992 -3.370551 0.519975
-0.344795 -3.359696 -0.212127
-0.319596 -3.369855 0.109278
-0.855454 -3.359629 0.435554
-0.899232 -3.368723 0.122003
-0.649811 -3.379571 0.268860
-0.846416 -3.122076 -0.001144
-1.131366 1.978465 0.122144
-0.860729 2.436236 -0.145175
-0.348965 2.091509 -0.235092
-1.003679 2.307260 0.279879
-1.687023 2.252531 0.076686
-0.910386 2.244286 -0.275547
-1.027179 1.975277 -0.163117
-1.689846 2.311656 -0.241103
-1.611523 2.447849 0.117547
-1.820934 2.324901 -0.125930
-1.574695 2.502996 -0.148705
-2.048968 2.511532 -0.192316
-1.869832 2.598815 -0.003391
-1.718036 2.515244 0.133857
-1.637089 2.569314 -0.206768
-2.045814 2.688590 -0.328829
-1.984668 2.260382 0.008399
-1.825933 2.288196 0.035282
-2.072725 2.644373 -0.178329
-2.398804 2.634709 -0.321310
-2.155067 2.565637 -0.366634
-2.359003 2.643612 -0.219927
-2.169921 2.594436 0.004144
-2.114527 2.545292 0.119850
-2.168721 2.621265 -0.069957
-2.421413 2.513695 0.047797
-2.413088 2.445130 0.054800
-2.071107 2.391380 0.054629
-1.976392 2.419289 0.165321
-2.167737 2.507532 -0.065271
-2.435232 2.514019 -0.004948
-2.366008 2.679451 -0.390092
-2.388530 2.488610 0.098497
-2.444578 2.536035 -0.136349
-2.448351 2.579493 -0.219080
-2.420247 2.639119 -0.109873
-2.362109 2.615219 -0.397727
-2.435473 2.462497 -0.001430
-2.039026 2.428824 -0.100688
-2.269049 2.395960 -0.051407
-2.288484 2.300553 -0.011541
-1.938206 2.312310 -0.135416
-2.272816 2.318923 -0.091018
-2.269556 2.363942 0.013902
0.346451 0.626827 0.900538
0.257844 0.603187 1.150573
0.386812 0.848315 0.873864
0.607542 1.328556 1.622037
0.530411 1.540327 1.883825
0.440324 1.449032 1.542650
0.422004 1.905219 1.616549
0.398599 1.802260 1.443330
0.686170 2.280065 1.642033
0.801080 2.292640 1.483106
0.522059 2.098091 1.478995
0.734411 2.272395 1.308134
0.953085 2.334756 1.509588
0.886871 2.233531 1.663093
0.486175 1.523870 0.860967
0.589004 1.698284 0.765415
0.237162 0.491144 1.515207
0.311908 0.378007 1.458842
0.345022 0.404318 1.143903
0.948677 2.079449 1.865093
0.289001 1.247836 1.378788
0.474146 2.055536 0.994312
0.306226 1.388450 1.101009
0.708812 2.256681 0.943194
1.236021 2.114107 1.232620
0.075896 2.128589 1.510165
0.768688 2.531319 2.085699
0.801572 2.148270 1.960684
0.623880 2.197715 1.930809
0.593934 2.209563 1.781629
0.626890 2.494314 1.918048
0.388751 2.706612 2.051540
0.809353 2.506128 1.891619
0.643568 2.449958 2.037225
-0.026482 2.739959 2.262617
0.071102 2.650101 2.122982
0.227063 1.978134 1.392568
0.426171 1.812845 1.301339
0.207466 2.126172 1.441763
0.303369 0.277044 0.876722
0.350979 0.461116 0.864196
0.345549 0.540864 0.813712
0.417024 0.475706 0.800042
0.236497 0.441145 0.848714
0.822061 1.250188 1.698393
0.898254 1.051406 0.746770
0.820445 -0.944195 -0.371162
0.175889 0.876934 1.842000
-0.587071 0.265328 -0.012859
-0.664021 -2.448261 -0.132360
-0.339065 -1.835052 0.184936
-0.356684 -1.847356 0.139705
0.389150 0.655271 0.841950
0.457777 0.588931 0.842028
3 0 1 2
3 3 4 5
3 5 6 7
3 5 8 3
3 9 10 11
3 9 12 10
3 5 13 6
3 14 2 6
3 12 15 1
3 8 7 16
3 2 17 18
3 2 18 19
3 15 20 21
3 15 17 1
3 22 23 24
3 25 23 26
3 27 28 29
3 30 25 31
3 32 33 28
3 34 35 36
3 37 36 33
3 38 39 30
3 27 29 38
3 39 22 24
3 34 40 35
3 36 41 33
3 40 41 35
3 42 26 43
3 43 26 23
3 44 41 45
3 29 22 39
3 28 33 22
3 46 47 27
3 48 47 49
3 18 32 48
3 21 50 51
3 52 53 18
3 54 55 56
3 46 57 55
3 21 51 52
3 58 56 50
3 46 27 57
3 30 56 38
3 37 32 53
3 37 51 59
3 60 51 50
3 46 61 16
3 46 7 49
3 62 20 58
3 49 19 48
3 48 19 18
3 54 20 61
3 18 17 52
3 62 21 20
3 14 13 63
3 12 0 64
3 10 65 66
3 65 67 66
3 68 69 70
3 71 72 73
3 71 73 74
3 73 72 75
3 65 76 67
3 72 77 75
3 76 78 79
3 77 80 81
3 82 83 77
3 81 80 76
3 44 84 85
3 85 86 44
3 44 87 84
3 87 44 88
3 84 42 43
3 89 90 88
3 45 89 44
3 90 87 88
3 91 86 23
3 31 59 60
3 34 37 59
3 92 68 93
3 94 95 96
3 96 97 98
3 68 99 93
3 100 101 102
3 98 69 92
3 102 94 100
3 102 103 95
3 69 104 105
3 97 103 104
3 102 106 107
3 97 104 69
3 107 108 103
3 105 109 106
3 107 110 111
3 112 113 109
3 114 115 112
3 106 116 110
3 112 104 114
3 105 104 112
3 112 109 105
3 112 117 113
3 109 118 116
3 119 120 117
3 116 121 122
3 118 121 116
3 123 119 117
3 113 124 125
3 118 124 126
3 119 118 126
3 116 127 110
3 127 116 122
3 108 111 128
3 129 130 131
3 108 129 132
3 119 121 118
3 129 133 121
3 122 133 130
3 111 134 135
3 128 136 127
3 131 130 133
3 126 137 119
3 137 120 119
3 136 135 134
3 103 138 114
3 138 139 140
3 138 140 115
3 123 140 141
3 132 138 103
3 115 123 117
3 141 140 142
3 142 140 139
3 117 112 115
3 108 132 103
3 143 144 145
3 146 144 143
3 147 148 149
3 150 151 143
3 152 153 154
3 155 156 157
3 155 157 158
3 159 160 161
3 155 158 162
3 83 161 80
3 163 164 165
3 166 167 168
3 168 167 169
3 152 154 170
3 171 172 166
3 171 147 172
3 173 174 175
3 174 143 151
3 148 174 173
3 160 175 174
3 176 177 163
3 148 147 171
3 173 178 156
3 148 173 156
3 179 180 181
3 177 182 163
3 179 182 177
3 180 183 184
3 155 185 180
3 163 185 164
3 181 186 187
3 183 186 188
3 182 183 185
3 181 187 182
3 184 186 181
3 161 83 159
3 159 83 189
3 176 147 149
3 156 190 157
3 190 178 173
3 152 170 191
3 146 166 153
3 168 169 192
3 193 194 195
3 3 196 197
3 3 198 199
3 11 200 9
3 199 201 196
3 194 9 200
3 202 198 8
3 203 199 198
3 199 204 195
3 193 205 194
3 205 15 194
3 206 207 208
3 209 210 211
3 211 210 212
3 213 214 215
3 212 216 217
3 218 219 214
3 217 216 220
3 221 209 219
3 213 222 218
3 220 213 215
3 223 216 224
3 225 226 213
3 226 227 228
3 229 225 223
3 221 207 210
3 230 211 231
3 211 232 231
3 233 234 235
3 236 233 232
3 235 234 237
3 237 238 239
3 239 209 230
3 236 217 240
3 238 214 219
3 217 236 212
3 214 234 215
3 241 242 240
3 215 234 241
3 235 205 233
3 203 230 231
3 20 235 237
3 204 231 232
3 230 61 239
3 239 61 237
3 205 232 233
3 243 244 11
3 245 197 246
3 66 11 10
3 247 248 246
3 249 243 66
3 243 250 244
3 251 252 245
3 249 253 243
3 254 251 255
3 253 256 243
3 67 79 249
3 79 253 249
3 254 82 72
3 257 258 259
3 79 260 258
3 258 260 261
3 261 189 82
3 247 262 250
3 263 256 253
3 254 255 264
3 264 265 259
3 265 257 259
3 263 266 256
3 267 245 248
3 268 248 247
3 269 255 245
3 256 270 250
3 250 268 247
3 255 271 264
3 257 266 263
3 272 273 274
3 273 275 276
3 227 272 228
3 277 272 227
3 276 278 229
3 222 273 206
3 274 273 222
3 273 229 206
3 215 240 220
3 270 279 268
3 271 280 265
3 281 280 271
3 270 282 283
3 269 284 281
3 270 283 279
3 268 285 267
3 269 286 284
3 287 283 282
3 279 288 285
3 284 289 280
3 280 287 282
3 285 286 269
3 290 286 288
3 291 292 293
3 286 294 293
3 295 288 296
3 297 291 293
3 286 293 289
3 292 283 287
3 298 299 290
3 290 300 297
3 291 301 302
3 297 303 291
3 301 304 302
3 305 306 307
3 301 308 309
3 310 297 294
3 311 304 305
3 312 290 308
3 299 310 294
3 313 314 300
3 314 313 312
3 315 298 310
3 316 304 309
3 306 295 296
3 317 318 306
3 319 320 295
3 321 317 320
3 321 319 318
3 318 319 322
3 307 306 296
3 290 288 320
3 320 317 290
3 323 324 325
3 326 327 328
3 327 329 330
3 331 332 333
3 332 334 333
3 165 334 335
3 159 189 260
3 336 163 165
3 332 331 336
3 337 338 78
3 339 340 172
3 341 323 170
3 337 78 150
3 176 163 342
3 339 326 343
3 344 338 345
3 345 343 330
3 334 344 333
3 346 260 344
3 334 347 160
3 328 343 326
3 348 330 329
3 349 350 342
3 349 351 350
3 331 333 352
3 353 354 355
3 331 355 336
3 355 342 336
3 351 356 352
3 352 353 331
3 357 356 349
3 354 357 349
3 354 349 355
3 358 353 356
3 358 357 354
3 327 330 328
3 359 360 330
3 361 329 333
3 348 361 359
3 362 363 364
3 362 170 363
3 365 362 364
3 363 366 364
3 323 364 366
3 326 176 327
3 326 367 176
3 339 345 324
3 192 339 324
3 147 176 367
3 81 75 77
3 98 75 81
3 75 93 73
3 73 99 74
3 13 71 74
3 99 63 74
3 0 63 64
3 100 63 99
3 100 64 63
3 96 81 368
3 64 96 368
3 170 323 363
3 145 144 152
3 246 248 245
3 0 12 1
3 5 4 13
3 3 197 4
3 5 7 8
3 6 13 14
3 14 0 2
3 12 9 15
3 7 6 369
3 2 1 17
3 6 2 19
3 369 6 19
3 15 21 17
3 25 26 40
3 22 91 23
3 25 24 23
3 91 33 41
3 31 25 40
3 27 47 28
3 47 32 28
3 32 37 33
3 30 39 25
3 37 34 36
3 38 29 39
3 25 39 24
3 34 31 40
3 40 26 41
3 33 91 22
3 41 36 35
3 42 41 26
3 23 86 85
3 85 43 23
3 91 41 44
3 29 28 22
3 46 49 47
3 48 32 47
3 18 53 32
3 62 58 50
3 52 51 53
3 54 46 55
3 58 54 56
3 21 62 50
3 38 56 57
3 38 57 27
3 30 50 56
3 37 53 51
3 30 60 50
3 60 59 51
3 46 54 61
3 49 7 369
3 46 16 7
3 49 369 19
3 54 58 20
3 21 52 17
3 0 14 63
3 10 12 64
3 13 4 71
3 10 64 65
3 101 68 70
3 4 197 252
3 71 4 252
3 71 252 72
3 67 76 79
3 65 368 76
3 72 82 77
3 76 80 151
3 77 83 80
3 82 189 83
3 76 151 78
3 44 89 88
3 42 45 41
3 90 45 42
3 84 43 85
3 89 45 90
3 87 42 84
3 90 42 87
3 91 44 86
3 31 34 59
3 30 31 60
3 68 101 99
3 100 99 101
3 92 69 68
3 102 95 94
3 97 69 98
3 96 95 97
3 102 107 103
3 70 69 105
3 97 95 103
3 101 70 106
3 102 101 106
3 70 105 106
3 107 106 110
3 109 125 118
3 114 138 115
3 109 113 125
3 106 109 116
3 107 111 108
3 114 104 103
3 117 120 113
3 122 128 127
3 137 124 120
3 118 125 124
3 124 137 126
3 110 127 134
3 127 136 134
3 128 111 135
3 370 108 128
3 129 122 130
3 128 122 370
3 119 132 129
3 119 129 121
3 113 120 124
3 129 131 133
3 122 121 133
3 128 135 136
3 111 110 134
3 119 123 132
3 141 142 139
3 132 123 141
3 132 141 139
3 132 139 138
3 123 115 140
3 146 153 144
3 143 325 150
3 171 166 148
3 150 78 151
3 152 144 153
3 172 340 167
3 167 340 169
3 149 148 156
3 155 179 156
3 160 174 161
3 158 157 175
3 165 162 347
3 162 165 164
3 162 164 155
3 166 172 167
3 172 147 367
3 325 143 145
3 148 166 146
3 174 151 80
3 148 146 174
3 174 146 143
3 174 80 161
3 158 160 347
3 160 158 175
3 347 162 158
3 179 155 180
3 179 181 182
3 180 185 183
3 181 180 184
3 155 164 185
3 163 182 185
3 183 187 186
3 182 187 183
3 184 183 188
3 184 188 186
3 175 190 173
3 156 178 190
3 175 157 190
3 362 365 170
3 170 365 191
3 191 365 152
3 168 153 166
3 168 192 154
3 154 153 168
3 371 262 247
3 3 199 196
3 3 8 198
3 194 15 9
3 11 244 200
3 200 244 262
4 199 195 371 201
3 200 371 195
3 195 194 200
3 202 203 198
3 203 204 199
3 195 204 193
3 205 20 15
3 200 262 371
3 206 223 207
3 213 226 222
3 209 221 210
3 213 218 214
3 212 210 224
3 220 216 372
3 212 224 216
3 218 221 219
3 218 222 208
3 218 208 207
3 220 372 213
3 223 225 216
3 213 372 225
3 372 216 225
3 226 225 227
3 226 228 222
3 229 278 225
3 221 218 207
3 210 207 224
3 230 209 211
3 211 236 232
3 233 242 234
3 236 242 233
3 239 238 373
3 239 373 374
3 237 234 238
3 239 374 209
3 374 238 219
3 209 374 219
3 238 234 214
3 242 236 240
3 212 236 211
3 241 234 242
3 230 202 61
3 204 203 231
3 235 20 205
3 203 202 230
3 193 204 232
3 237 61 20
3 205 193 232
3 247 246 196
3 246 197 196
3 244 250 262
3 245 252 197
3 66 243 11
3 245 255 251
3 67 249 66
3 251 72 252
3 243 256 250
3 251 254 72
3 259 261 254
3 79 257 253
3 254 261 82
3 261 259 258
3 79 338 260
3 261 260 189
3 79 78 338
3 79 258 257
3 264 259 254
3 264 271 265
3 267 269 245
3 268 267 248
3 269 281 255
3 256 266 270
3 250 270 268
3 255 281 271
3 257 265 266
3 278 276 275
3 229 273 276
3 273 272 277
3 277 275 273
3 225 278 227
3 227 278 275
3 274 228 272
3 277 227 275
3 274 222 228
3 206 229 223
3 224 207 223
3 222 206 208
3 215 241 240
3 220 240 217
3 265 280 282
3 269 267 285
3 281 284 280
3 270 266 282
3 266 265 282
3 268 279 285
3 279 283 288
3 289 287 280
3 284 286 289
3 285 288 286
3 290 299 286
3 283 307 296
3 287 293 292
3 286 299 294
3 291 302 292
3 292 302 307
3 295 320 288
3 293 294 297
3 288 283 296
3 287 289 293
3 292 307 283
3 304 316 305
3 305 307 311
3 317 306 308
3 301 309 304
3 305 316 306
3 310 298 297
3 297 298 290
3 290 312 313
3 308 290 317
3 314 312 308
3 290 313 300
3 298 315 299
3 299 315 310
3 306 319 295
3 321 318 317
3 319 321 320
3 306 322 319
3 306 318 322
3 263 253 257
3 325 324 345
3 323 341 324
3 327 351 329
3 165 347 334
3 159 346 160
3 163 336 342
3 335 336 165
3 339 192 340
3 192 169 340
3 170 154 341
3 326 339 172
3 327 176 350
3 350 351 327
3 367 326 172
3 325 337 150
3 325 375 323
3 337 325 345
3 344 360 333
3 344 260 338
3 345 338 337
3 334 346 344
3 346 159 260
3 160 346 334
3 335 332 336
3 334 332 335
3 342 350 176
3 348 359 330
3 330 343 328
3 352 356 353
3 349 356 351
3 331 353 355
3 355 349 342
3 353 358 354
3 357 358 356
3 359 361 333
3 361 348 329
3 363 323 366
3 339 343 345
3 192 324 341
3 341 154 192
3 64 368 65
3 368 81 76
3 98 92 75
3 75 92 93
3 73 93 99
3 13 74 63
3 100 94 64
3 94 96 64
3 96 98 81
3 152 376 145
3 375 364 323
3 376 152 365
3 376 365 364
3 364 375 376
3 325 376 375
3 325 145 376
3 333 329 352
3 351 352 329
3 330 360 345
3 344 345 360
3 360 359 333
3 122 129 370
3 108 370 129
3 291 303 301
3 297 300 303
3 300 314 303
3 308 301 303
3 308 303 314
3 316 309 308
3 308 306 316
3 311 302 304
3 302 311 307
3 149 177 176
3 177 149 179
3 179 149 156
3 201 371 247
3 196 201 247
